<svg width="36" height="36" viewBox="0 0 36 36" fill="none" xmlns="http://www.w3.org/2000/svg">
<path d="M3 4.5H12C13.5913 4.5 15.1174 5.13214 16.2426 6.25736C17.3679 7.38258 18 8.9087 18 10.5V31.5C18 30.3065 17.5259 29.1619 16.682 28.318C15.8381 27.4741 14.6935 27 13.5 27H3V4.5Z" stroke="#15B7B9" stroke-width="3" stroke-linecap="round" stroke-linejoin="round"/>
<path d="M33 4.5H24C22.4087 4.5 20.8826 5.13214 19.7574 6.25736C18.6321 7.38258 18 8.9087 18 10.5V31.5C18 30.3065 18.4741 29.1619 19.318 28.318C20.1619 27.4741 21.3065 27 22.5 27H33V4.5Z" stroke="#15B7B9" stroke-width="3" stroke-linecap="round" stroke-linejoin="round"/>
</svg>
