<svg width="564" height="196" viewBox="0 0 564 196" fill="none" xmlns="http://www.w3.org/2000/svg">
<path d="M245.144 98.536C238.061 98.536 231.491 97.384 225.432 95.08C219.459 92.776 214.253 89.5333 209.816 85.352C205.464 81.1707 202.051 76.264 199.576 70.632C197.187 65 195.992 58.856 195.992 52.2C195.992 45.544 197.187 39.4 199.576 33.768C202.051 28.136 205.507 23.2293 209.944 19.048C214.381 14.8667 219.587 11.624 225.56 9.31999C231.533 7.016 238.019 5.864 245.016 5.864C252.099 5.864 258.584 7.016 264.472 9.31999C270.445 11.624 275.608 14.8667 279.96 19.048C284.397 23.2293 287.853 28.136 290.328 33.768C292.803 39.3147 294.04 45.4587 294.04 52.2C294.04 58.856 292.803 65.0427 290.328 70.76C287.853 76.392 284.397 81.2987 279.96 85.48C275.608 89.576 270.445 92.776 264.472 95.08C258.584 97.384 252.141 98.536 245.144 98.536ZM245.016 80.872C249.027 80.872 252.696 80.1893 256.024 78.824C259.437 77.4587 262.424 75.496 264.984 72.936C267.544 70.376 269.507 67.3467 270.872 63.848C272.323 60.3493 273.048 56.4667 273.048 52.2C273.048 47.9333 272.323 44.0507 270.872 40.552C269.507 37.0533 267.544 34.024 264.984 31.464C262.509 28.904 259.565 26.9413 256.152 25.576C252.739 24.2107 249.027 23.528 245.016 23.528C241.005 23.528 237.293 24.2107 233.88 25.576C230.552 26.9413 227.608 28.904 225.048 31.464C222.488 34.024 220.483 37.0533 219.032 40.552C217.667 44.0507 216.984 47.9333 216.984 52.2C216.984 56.3813 217.667 60.264 219.032 63.848C220.483 67.3467 222.445 70.376 224.92 72.936C227.48 75.496 230.467 77.4587 233.88 78.824C237.293 80.1893 241.005 80.872 245.016 80.872ZM303.224 97V7.39999H342.008C350.029 7.39999 356.941 8.72266 362.744 11.368C368.547 13.928 373.027 17.64 376.184 22.504C379.341 27.368 380.92 33.1707 380.92 39.912C380.92 46.568 379.341 52.328 376.184 57.192C373.027 62.056 368.547 65.8107 362.744 68.456C356.941 71.016 350.029 72.296 342.008 72.296H314.744L323.96 62.952V97H303.224ZM323.96 65.256L314.744 55.4H340.856C347.256 55.4 352.035 54.0347 355.192 51.304C358.349 48.5733 359.928 44.776 359.928 39.912C359.928 34.9627 358.349 31.1227 355.192 28.392C352.035 25.6613 347.256 24.296 340.856 24.296H314.744L323.96 14.44V65.256ZM408.396 43.496H451.532V59.624H408.396V43.496ZM409.932 80.36H458.7V97H389.324V7.39999H457.036V24.04H409.932V80.36ZM468.799 97V7.39999H509.503C519.231 7.39999 527.807 9.27733 535.231 13.032C542.655 16.7013 548.458 21.864 552.639 28.52C556.82 35.176 558.911 43.0693 558.911 52.2C558.911 61.2453 556.82 69.1387 552.639 75.88C548.458 82.536 542.655 87.7413 535.231 91.496C527.807 95.1653 519.231 97 509.503 97H468.799ZM489.535 79.976H508.479C514.452 79.976 519.615 78.8667 523.967 76.648C528.404 74.344 531.818 71.1013 534.207 66.92C536.682 62.7387 537.919 57.832 537.919 52.2C537.919 46.4827 536.682 41.576 534.207 37.48C531.818 33.2987 528.404 30.0987 523.967 27.88C519.615 25.576 514.452 24.424 508.479 24.424H489.535V79.976Z" fill="#15B7B9"/>
<path d="M202 190.875V108.961H217.212V178.003H260.042V190.875H202ZM280.243 143.014H320.966V155.535H280.243V143.014ZM281.413 178.12H327.636V190.875H266.201V108.961H325.998V121.716H281.413V178.12ZM338.744 190.875V108.961H353.956V190.875H338.744ZM370.261 190.875V108.961H403.963C411.218 108.961 417.42 110.131 422.569 112.472C427.796 114.812 431.814 118.167 434.622 122.536C437.43 126.904 438.835 132.092 438.835 138.099C438.835 144.106 437.43 149.294 434.622 153.663C431.814 157.953 427.796 161.269 422.569 163.609C417.42 165.872 411.218 167.003 403.963 167.003H378.687L385.474 160.099V190.875H370.261ZM423.856 190.875L403.144 161.152H419.409L440.239 190.875H423.856ZM385.474 161.737L378.687 154.482H403.261C409.97 154.482 415.002 153.039 418.356 150.152C421.789 147.266 423.505 143.248 423.505 138.099C423.505 132.872 421.789 128.855 418.356 126.046C415.002 123.238 409.97 121.833 403.261 121.833H378.687L385.474 114.344V161.737ZM450.004 190.875V108.961H465.216V190.875H450.004ZM469.936 190.875L506.798 108.961H521.776L558.754 190.875H542.84L511.127 117.036H517.212L485.617 190.875H469.936ZM486.904 171.918L491 159.982H535.233L539.329 171.918H486.904Z" fill="#031C1D"/>
<path fill-rule="evenodd" clip-rule="evenodd" d="M14.2857 6C6.39593 6 0 12.3959 0 20.2857V176.857C0 184.747 6.39594 191.143 14.2857 191.143H153.714C161.604 191.143 168 184.747 168 176.857V20.2857C168 12.3959 161.604 6 153.714 6H14.2857ZM128.857 163.429C133.238 147.429 139.371 98.8 128.857 32.2857C99.4286 32.0952 39.6572 32 36 33.1429C34.4762 71.8095 32.0572 152.229 34.5714 164.571C62.7619 165.81 121.086 167.314 128.857 163.429Z" fill="#031C1D"/>
<rect x="77.1429" y="52.8571" width="14.2857" height="90.8571" rx="7.14286" fill="#031C1D"/>
</svg>
