<svg width="36" height="36" viewBox="0 0 36 36" fill="none" xmlns="http://www.w3.org/2000/svg">
<path d="M18 31.4101C20.25 31.4101 22.125 33.0001 24 33.0001C28.5 33.0001 33 21.0001 33 14.6701C32.9489 12.7272 32.1318 10.8833 30.727 9.54018C29.3221 8.19711 27.4432 7.46381 25.5 7.50011C22.17 7.50011 19.5 9.66011 18 10.5001C16.5 9.66011 13.83 7.50011 10.5 7.50011C8.55563 7.45985 6.67455 8.19183 5.2688 9.53574C3.86304 10.8796 3.04721 12.7259 3 14.6701C3 21.0001 7.5 33.0001 12 33.0001C13.875 33.0001 15.75 31.4101 18 31.4101Z" stroke="#15B7B9" stroke-width="3" stroke-linecap="round" stroke-linejoin="round"/>
<path d="M15 3C16.5 3.75 18 6 18 10.5" stroke="#15B7B9" stroke-width="3" stroke-linecap="round" stroke-linejoin="round"/>
</svg>
