<svg width="36" height="36" viewBox="0 0 36 36" fill="none" xmlns="http://www.w3.org/2000/svg">
<path d="M30.5697 5.19L23.9997 3C23.9997 4.5913 23.3676 6.11742 22.2423 7.24264C21.1171 8.36786 19.591 9 17.9997 9C16.4084 9 14.8823 8.36786 13.7571 7.24264C12.6318 6.11742 11.9997 4.5913 11.9997 3L5.42969 5.19C4.75077 5.41619 4.17506 5.87762 3.80648 6.49101C3.43789 7.10441 3.30071 7.82935 3.41969 8.535L4.28969 13.74C4.34681 14.0924 4.52771 14.4128 4.7999 14.6438C5.0721 14.8747 5.41773 15.001 5.77469 15H8.99969V30C8.99969 31.65 10.3497 33 11.9997 33H23.9997C24.7953 33 25.5584 32.6839 26.121 32.1213C26.6836 31.5587 26.9997 30.7956 26.9997 30V15H30.2247C30.5817 15.001 30.9273 14.8747 31.1995 14.6438C31.4717 14.4128 31.6526 14.0924 31.7097 13.74L32.5797 8.535C32.6987 7.82935 32.5615 7.10441 32.1929 6.49101C31.8243 5.87762 31.2486 5.41619 30.5697 5.19Z" stroke="#15B7B9" stroke-width="3" stroke-linecap="round" stroke-linejoin="round"/>
</svg>
